<?xml version="1.0" encoding="utf-8"?>
<!-- Generator: Adobe Illustrator 21.1.0, SVG Export Plug-In . SVG Version: 6.00 Build 0)  -->
<svg version="1.1" xmlns="http://www.w3.org/2000/svg" xmlns:xlink="http://www.w3.org/1999/xlink" x="0px" y="0px"
	 viewBox="0 0 600 800"  xml:space="preserve">
<style type="text/css">
	.st0{fill:#095859;}
	*{
	stroke:black;
	stroke-width: 1;
	}
</style>


		<path class="st0" d="M102,322.7c-0.3,0.1-0.5,0.1-0.6,0.1c-4.3,0-5.9-1.7-5.1-5.9c0.7-4.1,1.6-8.2,2.3-12.2
			c2-10.5,3.8-21,6.1-31.5c1.4-6.7,3.3-13.3,5.3-19.9c2.9-9.7,6-19.4,9.2-29c1.4-4.3,3.4-8.4,5.3-12.6c1.4-3.2,3.5-5.9,5.9-8.4
			c5.3-5.5,10.3-11.2,15.7-16.5c7.7-7.4,16.7-12.6,27.4-14.2c11.1-1.7,21.8-0.2,32.1,4.2c5.7,2.4,11.1,5.5,15.9,9.3
			c7.6,6,15.1,12.1,22.4,18.4c5.5,4.7,9.7,10.6,14.4,16c11.8,13.7,23.2,27.7,34,42.2c1.5,2,3,3.9,4.6,5.7c3,3.2,3.7,7,2.3,11.2
			c-0.6,2-1.5,3.9-2.6,5.7c-4.2,6.7-7.5,13.9-10.7,21.2c-0.5,1-1,2-1.4,3c-1.2,2.5-3.2,3.6-5.9,3.8c-11.1,1-22.1,1.8-33.1,3.1
			c-7.8,0.9-15.4,2.5-23.2,3.8c-2.1,0.3-4.3,0.7-6.4,0.9c-2.5,0.2-3.7-0.5-4.6-2.9c-0.6-1.6-1-3.4-1.5-5
			c-4.5-16.7-13-31.2-24.6-43.9c-5-5.4-11.2-8.7-18.6-9.4c-3.8-0.4-7.5,0.3-11.1,1.4c-12.2,3.6-22.3,10.2-30.3,20.1
			c-5.7,7-10.3,14.9-14.3,22.9C107.8,310.3,105,316.5,102,322.7z"/>
		<path class="st0" d="M287.8,313.1c1.7-3.9,3.2-7.7,5-11.2c8.3-16,17.5-31.4,27.7-46.2c7-10.2,15.8-18.2,26.9-23.7
			c1.9-1,3.8-2,5.7-3.1c17.4-9.7,35.4-18,54.6-23.9c5.9-1.8,11.8-3.4,18-3.9c3.1-0.3,6.2-0.3,9.3-0.1c5.4,0.4,10.8,1,16.2,1.8
			c5.6,0.8,10.8,2.9,15.6,6c11.9,7.7,21.9,17.4,29.1,29.7c6,10.2,9.8,21.3,12,33c1.1,5.8,1.9,11.7,2,17.6c0.1,6.1,0.3,12.1,0.3,18.2
			c0,3-0.3,6.1-0.5,9.1c0,0.7-0.3,1.4-0.4,2.1c-2.4,0.2-4.7,0.4-7,0.6c-2.3,0.2-3.9-0.8-5.1-2.9c-2.8-4.9-5.5-9.9-8.5-14.7
			c-6.1-9.6-13.6-18-23-24.5c-7.6-5.2-16-8.2-25-9.7c-6.2-1-12.1,0.3-17.6,3.2c-4.4,2.3-7.9,5.6-11.7,8.7c-9.8,7.8-16.4,18-22,29
			c-2.3,4.6-4.5,9.4-6.8,14c-0.3,0.7-0.7,1.4-1,2.2c-1.4,2.8-2.7,3.5-5.8,2.8c-4.1-1-8.2-2-12.3-3.2c-6.6-2-13.4-2.8-20.2-3.8
			c-9.7-1.4-19.4-2.8-29.2-4.1c-7.9-1-15.9-1.7-23.8-2.5C289.5,313.4,288.9,313.3,287.8,313.1z"/>
		<path class="st0" d="M363.1,220.3c-26.4,10.2-45.7,27.8-58.4,52.9c-0.8-0.9-1.3-1.6-1.8-2.3c-6-7.9-12.1-15.7-17.9-23.7
			c-7.4-10.2-15.7-19.6-24.1-28.9c-5.5-6-11-12.1-16.5-18.1c-1.5-1.7-3.1-3.1-5.2-4.2c-2.6-1.3-3.4-3.2-2.7-6
			c5.6-20.3,12.2-40.2,23.9-58.1c4.6-6.9,10.2-12.7,16.5-17.9c4-3.3,8.1-6.5,12.3-9.5c10.8-7.8,22.9-11.7,36.3-11.7
			c8.8,0,17.6,0.4,26.3,1.7c5.4,0.8,10.8,2.1,16.2,3.3c11.7,2.7,23.4,5.3,35,8.2c5,1.3,9.8,3.2,14.7,4.8c-0.2,3.3-1.9,4.8-5,4.6
			c-2.1-0.1-4.1-0.6-6.2-0.7c-3.7-0.2-7.5-0.3-11.2-0.2c-2.8,0.1-5.5,0.9-8,2.3c-8.1,4.7-16.1,9.5-23,16c-9.6,8.9-14.8,20.1-16.3,33
			c-0.7,5.7,0.7,11.1,2.1,16.5c2.8,10.5,6.5,20.7,10.6,30.8C361.7,215.4,362.3,217.7,363.1,220.3z"/>
		<path class="st0" d="M214.6,386.5c0-0.8-0.1-1.1-0.1-1.5c-0.1-11.4-0.2-22.9-0.3-34.3c0-4.6-0.3-9.1-2.1-13.4
			c-0.8-1.9-1.2-4-1.8-6c-0.2-0.7-0.3-1.4-0.5-2.4c2.2-0.5,4.4-1,6.5-1.4c8.8-1.8,17.5-3.7,26.3-5.2c4.3-0.7,8.7-0.7,13.1-0.9
			c7.2-0.4,14.3-0.9,21.5-1.3c6.6-0.3,13.3-0.3,19.9-0.5c9-0.3,17.8,1,26.6,2.5c10,1.8,20,3.4,30,5.2c6.8,1.2,13.5,2.6,20.2,3.8
			c2.4,0.4,3.6,1.8,3.2,4.4c-0.4,2.8-1.1,5.5-1.5,8.2c-1.1,7.2-2.3,14.5-3.2,21.8c-0.9,6.8-1.4,13.6-2.1,20.5c0,0.2-0.1,0.4-0.3,0.9
			c-2.5-0.6-5-1.1-7.4-1.7c-4.5-1.1-9-2.3-13.5-3.2c-4-0.8-8-1.2-12.1-1.8c-7.3-1.1-14.5-2.1-21.8-3.2c-9.9-1.4-19.9-2.1-29.9-1.6
			c-6.3,0.3-12.6,1.1-18.8,1.9c-10.9,1.5-21.8,2.9-32.7,4.8c-5.7,0.9-11.2,2.6-16.8,4C216.4,386.1,215.6,386.3,214.6,386.5z"/>
		<path class="st0" d="M366.5,415.9c0.3,0.4,0.5,0.6,0.6,0.8c3.4,6.2,8.2,11,13.9,15c4.2,2.9,8.6,5.6,12.8,8.4
			c6.7,4.4,13.3,8.9,19.9,13.4c1.6,1.1,3,2.4,4.3,3.8c5.2,5.9,4.3,12.9-2.2,17.3c-4.5,3-9.6,4.7-14.9,5.6c-10,1.7-19.2-0.6-27.7-5.9
			c-0.9-0.6-1.9-1.2-2.8-1.8c-1.6,8.1,3.4,16,12.4,20.2c-1.5,0.5-29.2,0.7-33.5,0.2c0.6-0.5,1.1-0.9,1.6-1.2
			c0.9-0.7,1.8-1.3,2.8-1.9c5.9-3.6,8.3-9.2,9.4-15.7c0-0.2,0-0.3,0-0.5c0-0.2-0.1-0.3-0.2-0.6c-0.7,0.4-1.4,0.8-2,1.2
			c-10.8,6.1-22.2,7.8-34.2,5c-4.5-1-8.4-3.5-11.6-6.9c-2.8-3-4-6.5-2.8-10.6c0.6-2.1,1.9-3.9,3.7-5.2c3.7-2.8,7.3-5.7,11.1-8.4
			c9.5-6.9,19.1-13.7,28.7-20.4c3.8-2.7,7.2-5.9,9.6-10C365.5,417.2,365.9,416.7,366.5,415.9z"/>
		<path class="st0" d="M209.9,411.8c4.9,9.4,12.7,15.3,21.1,20.7c8.7,5.6,17.2,11.3,25.8,17.1c1.8,1.2,3.5,2.8,4.9,4.5
			c4.3,5.3,3.9,11.2-1.1,15.8c-3.9,3.6-8.6,5.5-13.7,6.6c-7.8,1.7-15.4,0.8-22.8-2.1c-2.7-1-5.3-2.3-7.9-3.4
			c-0.7-0.3-1.5-0.6-2.3-0.9c-1.3,4.2-0.6,7.9,2.3,10.8c2.3,2.4,5.1,4.3,7.7,6.4c1,0.8,2.2,1.5,3.8,2.5c-12.1,0-23.7,0-35.6,0
			c0.6-0.5,0.9-0.9,1.3-1.1c2.3-1.6,4.6-3.2,6.8-4.9c4-2.9,6-6.7,5.7-11.7c-0.1-0.9,0-1.8,0-2.6c0-0.1-0.1-0.2-0.3-0.5
			c-0.7,0.5-1.4,0.9-2.1,1.4c-11.5,7.3-23.6,8.8-36.4,4.3c-3.1-1.1-6-2.7-8.3-5.1c-2.1-2.1-3.5-4.5-3.7-7.6c-0.3-4,1.5-7,4.4-9.4
			c2.4-2,4.9-3.8,7.5-5.6c6.6-4.5,13.3-8.8,19.9-13.3c3.8-2.6,7.6-5.3,11.3-8.1c4.4-3.4,8-7.6,10.8-12.4
			C209.2,412.8,209.4,412.5,209.9,411.8z"/>
		<path class="st0" d="M278.8,525.2c-0.9-1.4-1.6-2.6-2.3-3.9c-3.7-7.1-2.3-13.3,3.8-18.4c4.3-3.6,9.1-4,14.2-2.7
			c1.8,0.4,3.5,1.1,5.1,2c5.3,2.9,7.5,7.9,5.9,13.8c-0.7,2.6-2,5-3.1,7.5c-0.4,0.9-1,1.8-1.6,3c0.9-0.1,1.5-0.2,2-0.3
			c3.1-0.9,6.2-1.4,9.5-1.4c5.7,0.1,9.7,2.7,12.4,7.7c2.7,5,2.9,9.9-0.4,14.7c-3.2,4.7-10.8,7.6-16.4,6.3c-4.6-1.1-8.4-3.5-11.2-7.3
			c-1.1-1.5-2.2-3.1-3.4-4.8c-3.4,14.2,2.5,24.4,19.3,26.6c-0.8,0.5-1.2,0.9-1.8,1.2c-0.3,0.1-0.8,0-1.2,0c-12.5,0-25,0-37.4,0
			c-0.5,0-0.9,0-1.9-0.1c0.9-0.6,1.3-1,1.8-1.3c2.5-1.4,5-2.8,7.5-4.3c1.6-1,3-2.1,4.5-3.2c2.3-1.8,3.7-4.2,4.2-7.1
			c0.7-4,0.3-8.1,0.2-12.6c-0.7,0.7-1.1,1.1-1.4,1.5c-1.4,1.8-2.7,3.6-4.1,5.3c-5.4,7-15,8.5-22.3,3.5c-6.6-4.6-8.2-13.8-3.6-20.4
			c2.1-2.9,5-4.8,8.6-5.2c2.6-0.3,5.3-0.2,7.9-0.3C275.2,525.1,276.9,525.2,278.8,525.2z"/>
		<path class="st0" d="M425.6,119.4c0.1-3.5,0.7-6.9,2-10.1c3-7.2,10-11.9,17.8-12c3,0,6,0,9,0.8c7.3,1.8,12,6.4,14.1,13.5
			c2.2,7.6,1.7,14.9-3.4,21.3c-5.5,6.8-12.7,9.7-21.2,8.1c-8.7-1.6-14.7-6.8-17.3-15.3C426,123.7,426,121.5,425.6,119.4z"/>
		<path class="st0" d="M68,349.5c0-2.9,0.3-5.8,1.2-8.5c2.6-7.5,7.9-11.9,15.6-13.2c4.4-0.7,8.9-0.5,13.3,0.9
			c5.3,1.7,9.4,5,11.5,10.1c3.3,8,3.7,15.9-1.6,23.3c-5.5,7.7-13.2,10.9-22.4,9.1c-8.8-1.8-14.8-7.3-17.1-16.2
			C68.1,353.2,68.1,351.3,68,349.5z"/>
		<path class="st0" d="M529,346c0.4,11-7.1,22.2-22.7,22.4c-11.3,0.1-21.5-11.4-21.4-22.7c0.1-11.2,11.6-22.2,22.2-21.8
			C519.9,324.2,529.7,334.5,529,346z"/>
		<path class="st0" d="M343.8,605.5c0.6,0.7,1,1.2,1.3,1.7c6.3,9.2,12.6,18.5,19.1,27.6c1.9,2.8,1.7,5.2-0.1,7.7
			c-2.2,3.2-4.5,6.4-6.8,9.5c-4.6,6.2-9,12.4-11.9,19.6c-0.1,0.4-0.4,0.7-0.8,1.4c-4.1-5.8-7.6-11.6-11.3-17.3
			c-3.7-5.7-7.4-11.4-11.1-17.2C329.4,627.5,336.5,616.6,343.8,605.5z"/>
		<path class="st0" d="M418.4,623.5c-7.3,11.2-14.5,22.4-21.9,33.8c-0.5-0.7-1-1.2-1.3-1.8c-3.5-5.7-6.8-11.4-10.4-17
			c-2.4-3.7-5.2-7.1-7.8-10.6c-0.3-0.4-0.6-0.7-0.9-1.1c-2.4-2.9-2.4-4.2,0.1-6.9c0.5-0.6,1.1-1.2,1.6-1.8c7-8,12.6-16.9,16.9-26.6
			c0.4-0.8,0.7-1.5,1.3-2.7C403.6,600.5,411,611.9,418.4,623.5z"/>
		<path class="st0" d="M238.2,671.1c-7.4-11.3-14.6-22.4-21.9-33.6c7.3-11.2,14.5-22.3,21.9-33.6c7.4,11.4,14.5,22.5,21.8,33.8
			C252.8,648.8,245.6,659.8,238.2,671.1z"/>
		<path class="st0" d="M313,655.4c-7.3,11.3-14.6,22.5-22.1,34c-7.4-11.4-14.5-22.4-21.8-33.6c7.3-11.2,14.6-22.3,22.1-33.8
			c3.5,5.9,6.7,11.6,10.3,17.1C305.1,644.6,309.1,649.9,313,655.4z"/>
		<path class="st0" d="M187.4,585.7c7.3,11.3,14.5,22.4,21.7,33.5c-7.3,11.3-14.5,22.5-22,33.9c-3.5-5.9-6.6-11.7-10.2-17.2
			c-3.6-5.5-7.7-10.8-11.7-16.3C172.6,608.4,180,597.2,187.4,585.7z"/>

</svg>
